<svg height="726.23999" viewBox="0 0 1122.52 726.23999" width="1122.52" xmlns="http://www.w3.org/2000/svg"><g fill="#6cb2eb" transform="matrix(.13333333 0 0 -.13333333 0 726.24)"><path d="m4794.82 1968.52c-38.46 30.07-173.07 10.39-172.69 68.16l11.46 324.46c0 67.24 10.57 134.14 30.85 198.22 11.87 37.5 32.07 81.97 56.01 130.81-50.11 1.58-82.96 4.88-82.96 4.88s-57.31-88.86-85.99-180.56c-23.45-75.1-25.79-182.49-25.79-314.32l1.85-212.69c107.07-3.2 158.65-28.05 168.75-102.7h89.29c38.42 0 50.72 51.32 9.22 83.74"/><path d="m3702.44 2770.37c-27.38 11.82-47.98 22.12-47.98 22.12s-128.97-136.11-183.42-176.23c-36.46-26.86-90.82-83.57-126.24-167.73-16.64-39.55-21.04-82.87-21.04-125.76v-296.21c44.1-16.49 79.61-25.59 117.18-36.55 54.85-16 81.69-38.69 79.31-93.77h138.17c32.49-.02 61.42 74.84-16.89 96.72l-117.89 33.26c-27.32 10.56-37.76-5.66-40.8 151.07-2.13 110.74-5.46 171.56 1.18 253.21 7.84 96.6 80.99 195.43 218.42 339.87"/><path d="m5540.43 4002.63c-20 25.88-26.76 29.18-96.99 54.85 0 0-269.75 91.83-318.79 95.12 21.67 10 40.84 15.84 65.67 15.86-1.45 19.05-2.53 24.49-2.53 24.49-11.11 28.35-44.31 28.51-56.47 7.83l-46.06-49.04c-15.74-1.1-62.39-16.72-75.07-22.01l-56.3 59.93c-12.16 20.67-45.38 20.5-56.47-7.84 0 0-7.7-18.7-6.23-49.71.74-15.57 5.94-60.48 31.8-94.09-2.78-5.97-19.17-96.25-5.83-179.58 12.53-78.25 38.33-212.92 28.33-376.67-10.91-178.62-131.18-230.61-187.36-142.61l-32.85 56.4-182.7 313.95c-43.16 74.13-123.33 119.5-209.1 119.5-41.04 0-80.14 16.64-95.55 74.92-37.03 140.03-132.91 284.09-252.76 284.09h-23.92c-119.84 0-205.69-118.61-266.1-228.13-65.15-118.12-238.53-294.63-238.53-294.63-192.37-162.46-306.13-213.49-354.46-345.16-32.11-87.46-21.67-180 6.66-280 40.84-144.14 57.4-195.94 57.4-326.69 0-179.77-66.84-218.98-66.84-307.31v-496.4c0-74.81 79.97-70.77 109-70.77h225.63c32.5-.03 61.44 74.82-16.86 96.72l-117.91 33.25c-27.34 10.57-37.77-5.67-40.79 151.07-2.12 110.75-5.48 171.56 1.16 253.21 8.76 107.77 98.52 218.11 268.47 391.69 90.52 92.47 162.5 328.93 162.79 492.36.09 51.62-4.7 96.15-25.49 130.76 56.43-56.7 73.76-141.81 73.63-221.49-.19-103.31-13.23-195.51-57.32-302.37 119.32-59.08 302.36-99.26 453.32-99.26h207.37c-25.84-130.03-50.65-249.26-50.65-249.26l70.9-592.14c0-29.98 4.43-46.1 12.62-59.2 14-22.3 64.77-25.34 74.5-25.34h169.24c38.42 0 50.7 51.31 9.23 83.74-38.47 30.07-173.08 10.38-172.7 68.14v370.33c0 67.24 10.57 134.14 30.86 198.22 45.83 145 215.75 393.04 247.16 601.5 18.59-159.15-19.91-265.19-78.85-402.76 150.31-6.33 239 5.67 388.64 45.34 477.84 126.66 290.18 699.18 214.17 885.83-127.5 50-170 110-177.39 179.55 2.92.24 100.57-124.14 205.38-113.3 36.25 3.75 59.22 16.96 82.5 37.5 21.25 18.75 66.05 20.87 92.5 6.25l62.01-27.21c26.78-18.99 54.97-11.33 69.66 18.04l22.17 78.62c17.32 34.68-73.9 133.91-73.9 133.91"/><path d="m4209.45 1755.93c953.6 0 1799.02-136.98 2323.83-348.06-391.14 301.98-1284.33 513.04-2323.83 513.04-1039.49 0-1932.69-211.06-2323.83-513.04 524.81 211.08 1370.24 348.06 2323.83 348.06"/></g></svg>
